<svg width="24" height="24" viewBox="0 0 24 24" fill="none" xmlns="http://www.w3.org/2000/svg">
<g clip-path="url(#clip0_14518_1217)">
<path d="M24 24H0V22H24V24Z" fill="#0F0E0E"/>
<path d="M1 5.50879C6.52646 7.35307 9.65383 11.77 10.6797 16.7354C10.8686 16.256 11.0755 15.7941 11.2979 15.3516L13.085 16.25C12.6256 17.1645 12.2389 18.1656 11.9697 19.2422L11.7812 20H9.08008L9.00391 19.083C8.5894 14.1089 6.01839 9.59919 1 7.6377V5.50879Z" fill="#0F0E0E"/>
<path d="M14.8438 13.5186C14.4727 13.9786 14.1107 14.4837 13.7705 15.0293L12.0732 13.9707C12.4576 13.3543 12.8669 12.7837 13.2871 12.2627L14.8438 13.5186Z" fill="#0F0E0E"/>
<path d="M17.0996 11.2998C16.678 11.616 16.2239 12.0121 15.7627 12.4834L14.333 11.085C14.8603 10.5461 15.3914 10.082 15.9004 9.7002L17.0996 11.2998Z" fill="#0F0E0E"/>
<path fill-rule="evenodd" clip-rule="evenodd" d="M20.5 4C22.433 4 24 5.567 24 7.5C24 9.433 22.433 11 20.5 11C18.567 11 17 9.433 17 7.5C17 5.567 18.567 4 20.5 4ZM20.5 6C19.6716 6 19 6.67157 19 7.5C19 8.32843 19.6716 9 20.5 9C21.3284 9 22 8.32843 22 7.5C22 6.67157 21.3284 6 20.5 6Z" fill="#0F0E0E"/>
<path d="M24 2H0V0H24V2Z" fill="#0F0E0E"/>
</g>
<defs>
<clipPath id="clip0_14518_1217">
<rect width="24" height="24" fill="white"/>
</clipPath>
</defs>
</svg>
