<svg width="24" height="24" viewBox="0 0 24 24" fill="none" xmlns="http://www.w3.org/2000/svg">
<path d="M12 1C18.0752 1 23 5.92487 23 12C23 18.0752 18.0752 23 12 23C5.92487 23 1 18.0752 1 12C1 5.92487 5.92487 1 12 1ZM20.999 12.0088C18.4241 13.8297 15.0508 14.9097 11.2217 14.9258C10.8313 14.9274 10.4477 14.9145 10.0713 14.8945C10.5868 17.303 11.6001 19.3943 12.9209 20.9521C17.456 20.4912 20.9946 16.6645 20.999 12.0088ZM3.05664 13.0029C3.49507 16.9567 6.49386 20.1352 10.3584 20.8477C9.22102 19.0917 8.39937 16.9798 7.98926 14.667C6.16396 14.3593 4.52323 13.7865 3.05664 13.0029ZM7.69336 11.2725C7.69336 8.37812 8.32269 5.66461 9.4209 3.37598C6.10696 4.3656 3.59511 7.21228 3.09277 10.709C4.43489 11.5651 5.97401 12.2165 7.73633 12.585C7.70758 12.1521 7.69336 11.7143 7.69336 11.2725ZM9.69336 11.2725C9.69336 11.8152 9.7183 12.349 9.76562 12.8721C10.2342 12.9082 10.7165 12.9279 11.2129 12.9258C15.1489 12.9093 18.4351 11.654 20.7041 9.70703C19.6901 5.84724 16.1781 3 12 3C11.9664 3 11.9329 3.00159 11.8994 3.00195C10.5357 5.20633 9.69336 8.09039 9.69336 11.2725Z" fill="#0F0E0E"/>
</svg>
