<svg width="24" height="24" viewBox="0 0 24 24" fill="none" xmlns="http://www.w3.org/2000/svg">
<g clip-path="url(#clip0_12525_482)">
<path fill-rule="evenodd" clip-rule="evenodd" d="M12 0C18.6274 0 24 5.37258 24 12C24 18.6274 18.6274 24 12 24C5.37258 24 0 18.6274 0 12C0 5.37258 5.37258 0 12 0ZM12 2C6.47715 2 2 6.47715 2 12C2 17.5228 6.47715 22 12 22C17.5228 22 22 17.5228 22 12C22 6.47715 17.5228 2 12 2Z" fill="#0F0E0E"/>
<path d="M18.8555 9.9541L14.63 11.2722C14.2122 11.4025 13.9277 11.7892 13.9277 12.2268V14.1973L16.7598 18.4453L15.0957 19.5547L12.9262 16.3004C12.4512 15.5879 11.4043 15.5879 10.9293 16.3004L8.75977 19.5547L7.0957 18.4453L9.92773 14.1963V12.2276C9.92773 11.7901 9.64332 11.4034 9.22569 11.2731L5 9.9541L5.5957 8.0459L11.9277 10.0215L18.2598 8.0459L18.8555 9.9541Z" fill="#0F0E0E"/>
<path d="M11.9277 4C13.0323 4 13.9277 4.89543 13.9277 6C13.9277 7.10457 13.0323 8 11.9277 8C10.8232 8 9.92773 7.10457 9.92773 6C9.92773 4.89543 10.8232 4 11.9277 4Z" fill="#0F0E0E"/>
</g>
<defs>
<clipPath id="clip0_12525_482">
<rect width="24" height="24" fill="white"/>
</clipPath>
</defs>
</svg>
