<svg width="24" height="24" viewBox="0 0 24 24" fill="none" xmlns="http://www.w3.org/2000/svg">
<path d="M8 10.5L9.59087 10.2349C10.4338 10.0944 11.0944 9.43381 11.2349 8.59087L11.5 7H12.5L12.7651 8.59087C12.9056 9.43381 13.5662 10.0944 14.4091 10.2349L16 10.5V11.5L14.4091 11.7651C13.5662 11.9056 12.9056 12.5662 12.7651 13.4091L12.5 15H11.5L11.2349 13.4091C11.0944 12.5662 10.4338 11.9056 9.59087 11.7651L8 11.5V10.5Z" fill="#0F0E0E"/>
<path d="M15 6H6C5.44772 6 5 6.44772 5 7V17C5 17.4119 5.4702 17.6473 5.7998 17.4004L7.66699 16H18C18.5523 16 19 15.5523 19 15V10H21V18H8.33301L3 22V4H15V6Z" fill="#0F0E0E"/>
<path d="M21 6.14233V6.85645C19.6772 7.04684 19.0383 7.73655 18.8564 9H18.1436C17.9532 7.67723 17.2634 7.03831 16 6.85645V6.14233C17.3234 5.95518 17.9618 5.2625 18.1436 4H18.8564C19.0467 5.32167 19.7361 5.9636 21 6.14233Z" fill="#0F0E0E"/>
</svg>
