<svg width="24" height="24" viewBox="0 0 24 24" fill="none" xmlns="http://www.w3.org/2000/svg">
<path d="M3 11.0164L6.58426 10.419C8.48344 10.1024 9.97168 8.6142 10.2882 6.71503L10.8856 3.13077H13.1386L13.736 6.71503C14.0525 8.6142 15.5408 10.1024 17.4399 10.419L21.0242 11.0164V13.2694L17.4399 13.8668C15.5408 14.1833 14.0525 15.6715 13.736 17.5707L13.1386 21.155H10.8856L10.2882 17.5707C9.97168 15.6715 8.48344 14.1833 6.58426 13.8668L3 13.2694V11.0164Z" fill="#0F0E0E"/>
<path d="M21.2328 1.58212C21.3946 2.71501 22.285 3.60541 23.4179 3.76725L24 3.85023V4.58573L23.4179 4.66997C22.285 4.83181 21.3946 5.72221 21.2328 6.8551L21.1498 7.43721H20.413L20.3301 6.8551C20.1682 5.72221 19.2778 4.83181 18.1449 4.66997L17.5628 4.58573V3.85023L18.1449 3.76725C19.2778 3.60541 20.1682 2.71501 20.3301 1.58212L20.413 1H21.1498L21.2328 1.58212Z" fill="#0F0E0E"/>
</svg>
