<svg width="24" height="24" viewBox="0 0 24 24" fill="none" xmlns="http://www.w3.org/2000/svg">
<path d="M4.6886 11.78L7.47261 11.316C8.94777 11.0702 10.1037 9.91421 10.3496 8.43905L10.8136 5.65504H12.5636L13.0276 8.43905C13.2735 9.91421 14.4294 11.0702 15.9046 11.316L18.6886 11.78V13.53L15.9046 13.994C14.4294 14.2399 13.2735 15.3959 13.0276 16.871L12.5636 19.655H10.8136L10.3496 16.871C10.1037 15.3959 8.94777 14.2399 7.47261 13.994L4.6886 13.53V11.78Z" fill="#0F0E0E"/>
<path d="M18.8506 4.45215C18.9763 5.3321 19.6679 6.02371 20.5479 6.14941L21 6.21387V6.78516L20.5479 6.85059C19.6679 6.97629 18.9763 7.6679 18.8506 8.54785L18.7862 9H18.2139L18.1494 8.54785C18.0237 7.6679 17.3321 6.97629 16.4522 6.85059L16 6.78516V6.21387L16.4522 6.14941C17.3321 6.02371 18.0237 5.3321 18.1494 4.45215L18.2139 4H18.7862L18.8506 4.45215Z" fill="#0F0E0E"/>
</svg>
