<svg width="24" height="24" viewBox="0 0 24 24" fill="none" xmlns="http://www.w3.org/2000/svg">
<g clip-path="url(#clip0_14518_262)">
<path d="M13 17.75V21.5723L15.7832 20.5605L16.4668 22.4395L12.3418 23.9395L12 24.0645L11.6582 23.9395L7.5332 22.4395L8.2168 20.5605L11 21.5723V17.75H13ZM2 13.75V17.3818L4.55273 16.1055L5.44727 17.8945L3.52637 18.8545L5.4668 19.5605L4.7832 21.4395L0 19.7002V13.75H2ZM24 13.75V19.7002L19.2168 21.4395L18.5332 19.5605L20.4727 18.8545L18.5527 17.8945L19.4473 16.1055L22 17.3818V13.75H24ZM16.4668 8.43945L13 9.69922V14.25H11V9.69922L7.5332 8.43945L8.2168 6.56055L12 7.93555L15.7832 6.56055L16.4668 8.43945ZM5.4668 4.43945L3.9248 5L5.4668 5.56055L4.7832 7.43945L2 6.42676V10.25H0V4.2998L4.7832 2.56055L5.4668 4.43945ZM12.3418 0.0605469L16.4668 1.56055L15.7832 3.43945L13 2.42676V5H11V2.42676L8.2168 3.43945L7.5332 1.56055L11.6582 0.0605469L12 -0.0644531L12.3418 0.0605469ZM24 10.25H22V6.42676L19.2168 7.43945L18.5332 5.56055L20.0742 5L18.5332 4.43945L19.2168 2.56055L24 4.2998V10.25Z" fill="#0F0E0E"/>
</g>
<defs>
<clipPath id="clip0_14518_262">
<rect width="24" height="24" fill="white"/>
</clipPath>
</defs>
</svg>
