<svg width="24" height="24" viewBox="0 0 24 24" fill="none" xmlns="http://www.w3.org/2000/svg">
<path fill-rule="evenodd" clip-rule="evenodd" d="M16 16.7998L6.52539 18.7002C6.37547 18.7335 6.25036 18.8126 6.15039 18.9375C6.05048 19.0624 6.00009 19.1998 6 19.3496C6 19.5328 6.07476 19.6875 6.22461 19.8125C6.37461 19.9375 6.55 20 6.75 20H18V4H20V22H6.75C6 22 5.35417 21.7456 4.8125 21.2373C4.2709 20.729 4 20.0996 4 19.3496V5.40039C4 4.76706 4.19622 4.2002 4.58789 3.7002C4.97955 3.20024 5.4917 2.88333 6.125 2.75L16 0.799805V16.7998ZM9 4.22461L7 4.625L6.625 4.7002C6.44168 4.73353 6.29146 4.81251 6.1748 4.9375C6.0582 5.06248 6 5.2171 6 5.40039V15.6016C6 16.2339 6.57944 16.7075 7.19906 16.5816L12.7986 15.4442C13.4976 15.3022 14 14.6876 14 13.9743V4.46374C14 3.83469 13.4261 3.36186 12.8087 3.48221L9 4.22461Z" fill="#0F0E0E"/>
</svg>
