<svg width="24" height="24" viewBox="0 0 24 24" fill="none" xmlns="http://www.w3.org/2000/svg">
<path d="M21 7C21 5.89543 20.1046 5 19 5H5C3.89543 5 3 5.89543 3 7V17C3 18.1046 3.89543 19 5 19H19C20.1046 19 21 18.1046 21 17V7ZM23 21H1V3H23V21Z" fill="#0F0E0E"/>
<path d="M7 8C7 8.55228 6.55228 9 6 9C5.44772 9 5 8.55228 5 8C5 7.44772 5.44772 7 6 7C6.55228 7 7 7.44772 7 8Z" fill="#0F0E0E"/>
<path d="M11 8C11 8.55228 10.5523 9 10 9C9.44771 9 9 8.55228 9 8C9 7.44772 9.44771 7 10 7C10.5523 7 11 7.44772 11 8Z" fill="#0F0E0E"/>
<path d="M15 8C15 8.55228 14.5523 9 14 9C13.4477 9 13 8.55228 13 8C13 7.44772 13.4477 7 14 7C14.5523 7 15 7.44772 15 8Z" fill="#0F0E0E"/>
</svg>
