<svg width="24" height="24" viewBox="0 0 24 24" fill="none" xmlns="http://www.w3.org/2000/svg">
<path d="M11.0184 14V12H13.0184V14H11.0184ZM7.01843 14V12H9.01843V14H7.01843ZM15.0184 14V12H17.0184V14H15.0184ZM11.0184 18V16H13.0184V18H11.0184ZM7.01843 18V16H9.01843V18H7.01843ZM15.0184 18V16H17.0184V18H15.0184ZM3.01843 22V4H5.01843C5.57072 4 6.01843 3.55228 6.01843 3V2H8.01843V3C8.01843 3.55228 8.46615 4 9.01843 4H15.0184C15.5707 4 16.0184 3.55228 16.0184 3V2H18.0184V3C18.0184 3.55228 18.4661 4 19.0184 4H21.0184V22H3.01843ZM5.01843 19C5.01843 19.5523 5.46615 20 6.01843 20H18.0184C18.5707 20 19.0184 19.5523 19.0184 19V11C19.0184 10.4477 18.5707 10 18.0184 10H6.01843C5.46615 10 5.01843 10.4477 5.01843 11V19ZM5.01843 7C5.01843 7.55228 5.46615 8 6.01843 8H18.0184C18.5707 8 19.0184 7.55228 19.0184 7C19.0184 6.44772 18.5707 6 18.0184 6H6.01843C5.46615 6 5.01843 6.44772 5.01843 7Z" fill="#0F0E0E"/>
</svg>
