<svg width="24" height="24" viewBox="0 0 24 24" fill="none" xmlns="http://www.w3.org/2000/svg">
<path d="M18 7.40039L14.8145 10.5859C14.0334 11.367 14.0334 12.633 14.8145 13.4141L18 16.5996L16.5996 18L13.4141 14.8145C12.633 14.0334 11.367 14.0334 10.5859 14.8145L7.40039 18L6 16.5996L9.18555 13.4141C9.9666 12.633 9.9666 11.367 9.18555 10.5859L6 7.40039L7.40039 6L10.5859 9.18555C11.367 9.9666 12.633 9.9666 13.4141 9.18555L16.5996 6L18 7.40039Z" fill="#0F0E0E"/>
<path fill-rule="evenodd" clip-rule="evenodd" d="M12 0C18.6274 0 24 5.37258 24 12C24 18.6274 18.6274 24 12 24C5.37258 24 0 18.6274 0 12C0 5.37258 5.37258 0 12 0ZM12 2C6.47715 2 2 6.47715 2 12C2 17.5228 6.47715 22 12 22C17.5228 22 22 17.5228 22 12C22 6.47715 17.5228 2 12 2Z" fill="#0F0E0E"/>
</svg>
