<svg width="24" height="24" viewBox="0 0 24 24" fill="none" xmlns="http://www.w3.org/2000/svg">
<path d="M1 21V5.99999H3V19H19V21H1ZM5 17V2.99999H16.4L14.4 4.99999H7V15H21V7.59999L23 5.59999V17H5ZM14.5 11C14.1167 11 13.7458 10.9125 13.3875 10.7375C13.0292 10.5625 12.7333 10.3167 12.5 9.99999C12.7833 9.99999 13.0208 9.90415 13.2125 9.71249C13.4042 9.52082 13.5 9.28332 13.5 8.99999C13.5 8.58332 13.6458 8.22915 13.9375 7.93749C14.2292 7.64582 14.5833 7.49999 15 7.49999C15.4167 7.49999 15.7708 7.64582 16.0625 7.93749C16.3542 8.22915 16.5 8.58332 16.5 8.99999C16.5 9.54999 16.3042 10.0208 15.9125 10.4125C15.5208 10.8042 15.05 11 14.5 11ZM17.775 7.99999L16 6.22499L21.45 0.799988L23.2 2.54999L17.775 7.99999Z" fill="#0F0E0E"/>
</svg>
