<svg width="24" height="24" viewBox="0 0 24 24" fill="none" xmlns="http://www.w3.org/2000/svg">
<path d="M16 5.59961L14.5996 7L13.8535 6.25391C13.5385 5.939 13.0001 6.16204 13 6.60742V9C13 10.1046 13.8954 11 15 11H17.3926C17.838 10.9999 18.061 10.4615 17.7461 10.1465L17 9.40039L18.4004 8L22.4004 12L18.4004 16L17 14.5996L17.7461 13.8535C18.061 13.5385 17.838 13.0001 17.3926 13H15L14.7959 13.0107C13.7872 13.113 13 13.9643 13 15V17.3926C13.0001 17.838 13.5385 18.061 13.8535 17.7461L14.5996 17L16 18.4004L12 22.4004L8 18.4004L9.40039 17L10.1465 17.7461C10.4615 18.061 10.9999 17.838 11 17.3926V15C11 13.8954 10.1046 13 9 13H6.60742C6.16204 13.0001 5.939 13.5385 6.25391 13.8535L7 14.5996L5.59961 16L1.59961 12L5.59961 8L7 9.40039L6.25391 10.1465C5.939 10.4615 6.16204 10.9999 6.60742 11H9C10.1046 11 11 10.1046 11 9V6.60742C10.9999 6.16204 10.4615 5.939 10.1465 6.25391L9.40039 7L8 5.59961L12 1.59961L16 5.59961Z" fill="#0F0E0E"/>
</svg>
