<svg width="24" height="24" viewBox="0 0 24 24" fill="none" xmlns="http://www.w3.org/2000/svg">
<path d="M9.70703 15.707L6.26762 19.1464C5.95263 19.4614 6.17572 20 6.62117 20H9V22H2V15H4V17.3788C4 17.8243 4.53857 18.0474 4.85355 17.7324L8.29297 14.293L9.70703 15.707ZM19.1464 17.7324C19.4614 18.0474 20 17.8243 20 17.3788V15H22V22H15V20H17.3788C17.8243 20 18.0474 19.4614 17.7324 19.1464L14.293 15.707L15.707 14.293L19.1464 17.7324ZM9 2V4H6.62117C6.17572 4 5.95263 4.53857 6.26762 4.85355L9.70703 8.29297L8.29297 9.70703L4.85355 6.26762C4.53857 5.95263 4 6.17572 4 6.62117V9H2V2H9ZM22 9H20V6.62117C20 6.17572 19.4614 5.95263 19.1464 6.26762L15.707 9.70703L14.293 8.29297L17.7324 4.85355C18.0474 4.53857 17.8243 4 17.3788 4H15V2H22V9Z" fill="#0F0E0E"/>
</svg>
