<svg width="24" height="24" viewBox="0 0 24 24" fill="none" xmlns="http://www.w3.org/2000/svg">
<path d="M1 19V5H23V19H1ZM3 17H21V7H3V17ZM7 15H9V13H11V11H9V9H7V11H5V13H7V15ZM14.5 15C14.9167 15 15.2708 14.8542 15.5625 14.5625C15.8542 14.2708 16 13.9167 16 13.5C16 13.0833 15.8542 12.7292 15.5625 12.4375C15.2708 12.1458 14.9167 12 14.5 12C14.0833 12 13.7292 12.1458 13.4375 12.4375C13.1458 12.7292 13 13.0833 13 13.5C13 13.9167 13.1458 14.2708 13.4375 14.5625C13.7292 14.8542 14.0833 15 14.5 15ZM17.5 12C17.9167 12 18.2708 11.8542 18.5625 11.5625C18.8542 11.2708 19 10.9167 19 10.5C19 10.0833 18.8542 9.72917 18.5625 9.4375C18.2708 9.14583 17.9167 9 17.5 9C17.0833 9 16.7292 9.14583 16.4375 9.4375C16.1458 9.72917 16 10.0833 16 10.5C16 10.9167 16.1458 11.2708 16.4375 11.5625C16.7292 11.8542 17.0833 12 17.5 12Z" fill="#0F0E0E"/>
</svg>
