<svg width="24" height="24" viewBox="0 0 24 24" fill="none" xmlns="http://www.w3.org/2000/svg">
<g clip-path="url(#clip0_14541_1067)">
<path d="M12 0C18.6274 0 24 5.37258 24 12C24 18.6274 18.6274 24 12 24C5.37258 24 0 18.6274 0 12C0 5.37258 5.37258 0 12 0ZM2.07617 13.2197C2.59169 17.4579 5.75654 20.8761 9.86621 21.7695C9.62498 21.3849 9.36869 20.9461 9.11328 20.4561C8.24734 18.7946 7.3766 16.5314 7.09473 13.8174C5.86033 13.7251 4.77926 13.6088 3.87695 13.4912C3.15978 13.3978 2.55564 13.3011 2.07617 13.2197ZM21.9229 13.2197C21.4435 13.3011 20.8397 13.3978 20.123 13.4912C19.2219 13.6086 18.1425 13.7242 16.9102 13.8164C16.636 16.6415 15.7613 18.9248 14.8828 20.5771C14.6505 21.0141 14.4164 21.4066 14.1943 21.7549C18.2744 20.8411 21.4098 17.4369 21.9229 13.2197ZM14.8867 13.9346C13.982 13.9738 13.0175 14 12 14C10.9858 14 10.0243 13.9745 9.12207 13.9355C9.40513 16.1997 10.1429 18.104 10.8867 19.5312C11.2892 20.3034 11.6921 20.9311 12.0186 21.3955C12.3371 20.9585 12.7278 20.3701 13.1172 19.6377C13.864 18.2329 14.6105 16.3099 14.8867 13.9346ZM12.0186 2.60352C11.692 3.06796 11.2894 3.6962 10.8867 4.46875C9.94681 6.27227 9.01532 8.83711 9.00098 11.9277C9.93501 11.9711 10.9375 12 12 12C13.0621 12 14.0643 11.9711 14.998 11.9277C14.9843 8.68222 14.0505 6.1178 13.1172 4.3623C12.7276 3.62955 12.3372 3.04063 12.0186 2.60352ZM9.86621 2.22949C5.6265 3.15111 2.39226 6.7607 2.03516 11.1846C2.52916 11.2739 3.23873 11.3919 4.13574 11.5088C4.9457 11.6143 5.90833 11.7175 7.00293 11.8037C7.04131 8.36479 8.08017 5.52617 9.11328 3.54395C9.36885 3.05359 9.62485 2.61429 9.86621 2.22949ZM14.1943 2.24414C14.4166 2.59259 14.6503 2.9856 14.8828 3.42285C15.9236 5.38043 16.9593 8.22305 16.9961 11.8037C18.0911 11.7175 19.0541 11.6143 19.8643 11.5088C20.7607 11.392 21.4699 11.2739 21.9639 11.1846C21.6084 6.78191 18.4041 3.18692 14.1943 2.24414Z" fill="#0F0E0E"/>
</g>
<defs>
<clipPath id="clip0_14541_1067">
<rect width="24" height="24" fill="white"/>
</clipPath>
</defs>
</svg>
