<svg width="24" height="24" viewBox="0 0 24 24" fill="none" xmlns="http://www.w3.org/2000/svg">
<path fill-rule="evenodd" clip-rule="evenodd" d="M12 2C17.5228 2 22 6.47715 22 12V22H15V13H19C19.5523 13 20 12.5523 20 12C20 7.58172 16.4183 4 12 4C7.58172 4 4 7.58172 4 12C4 12.5523 4.44772 13 5 13H9V22H2V12C2 6.47715 6.47715 2 12 2ZM18 15C17.4477 15 17 15.4477 17 16V19C17 19.5523 17.4477 20 18 20H19C19.5523 20 20 19.5523 20 19V16C20 15.4477 19.5523 15 19 15H18ZM4 19C4 19.5523 4.44772 20 5 20H6C6.55228 20 7 19.5523 7 19V16C7 15.4477 6.55228 15 6 15H5C4.44772 15 4 15.4477 4 16V19Z" fill="#0F0E0E"/>
</svg>
