<svg width="24" height="24" viewBox="0 0 24 24" fill="none" xmlns="http://www.w3.org/2000/svg">
<path d="M14.8284 16.2426L8.46446 22.6066L1.39339 15.5355L7.75735 9.17158L9.17156 10.5858L5.63603 14.1213C4.85498 14.9024 4.85498 16.1687 5.63603 16.9498L7.05024 18.364C7.83129 19.145 9.09762 19.145 9.87867 18.364L13.4142 14.8284L14.8284 16.2426ZM9.17156 16.2426L7.75735 14.8284L14.8284 7.75736L16.2426 9.17158L9.17156 16.2426ZM16.2426 14.8284L14.8284 13.4142L18.3639 9.87868C19.145 9.09763 19.145 7.8313 18.3639 7.05026L16.9497 5.63604C16.1687 4.85499 14.9024 4.85499 14.1213 5.63604L10.5858 9.17158L9.17156 7.75736L15.5355 1.3934L22.6066 8.46447L16.2426 14.8284Z" fill="#0F0E0E"/>
</svg>
