<svg width="24" height="24" viewBox="0 0 24 24" fill="none" xmlns="http://www.w3.org/2000/svg">
<path fill-rule="evenodd" clip-rule="evenodd" d="M19 2C20.6569 2 22 3.34315 22 5V19C22 20.6569 20.6569 22 19 22H5C3.34315 22 2 20.6569 2 19V5C2 3.34315 3.34315 2 5 2H19ZM4.97656 9.49316V19.0234H8.00195V9.49316H4.97656ZM15.5918 9.25C13.4688 9.25005 12.6885 10.8105 12.6885 10.8105V9.49316H9.81348V19.0234H12.8379V13.9717C12.838 13.1125 13.081 11.8916 14.4971 11.8916C15.1794 11.8917 16.0751 12.076 16.0752 13.7529V19.0234H19.0547V13.0264C19.0546 10.1829 17.4856 9.25 15.5918 9.25ZM6.48926 4.74121C5.53105 4.74121 4.75391 5.51835 4.75391 6.47656C4.75416 7.43455 5.53121 8.21094 6.48926 8.21094C7.44726 8.21088 8.22435 7.43452 8.22461 6.47656C8.22461 5.51839 7.44742 4.74127 6.48926 4.74121Z" fill="#0F0E0E"/>
</svg>
