<svg width="24" height="24" viewBox="0 0 24 24" fill="none" xmlns="http://www.w3.org/2000/svg">
<path d="M12 12C13.1046 12 14 12.8954 14 14C14 14.7398 13.5971 15.3835 13 15.7295V18H11V15.7295C10.4029 15.3835 10 14.7398 10 14C10 12.8954 10.8954 12 12 12Z" fill="#0F0E0E"/>
<path fill-rule="evenodd" clip-rule="evenodd" d="M12 1C14.7614 1 17 3.23858 17 6V8H20V22H4V8H7V6C7 3.23858 9.23858 1 12 1ZM8 10C6.89543 10 6 10.8954 6 12V18C6 19.1046 6.89543 20 8 20H16C17.1046 20 18 19.1046 18 18V12C18 10.8954 17.1046 10 16 10H8ZM12 3C10.3431 3 9 4.34315 9 6V7C9 7.55228 9.44772 8 10 8H14C14.5523 8 15 7.55228 15 7V6C15 4.34315 13.6569 3 12 3Z" fill="#0F0E0E"/>
</svg>
