<svg width="24" height="24" viewBox="0 0 24 24" fill="none" xmlns="http://www.w3.org/2000/svg">
<path fill-rule="evenodd" clip-rule="evenodd" d="M22 22H2V3H22V22ZM12 13L5.55475 8.70264C4.89019 8.25955 4 8.73594 4 9.53466V18C4 19.1046 4.89543 20 6 20H18C19.1046 20 20 19.1046 20 18V9.53466C20 8.73594 19.1098 8.25955 18.4453 8.70264L12 13ZM12 11L19.858 5.59764C19.9469 5.53652 20 5.43554 20 5.32765C20 5.14669 19.8533 5 19.6724 5H4.32765C4.14669 5 4 5.14669 4 5.32765C4 5.43554 4.05312 5.53652 4.14203 5.59764L12 11Z" fill="#0F0E0E"/>
</svg>
