<svg width="24" height="24" viewBox="0 0 24 24" fill="none" xmlns="http://www.w3.org/2000/svg">
<path fill-rule="evenodd" clip-rule="evenodd" d="M22 18.6182L15 22.1182L9 19.1182L2 22.6182V5.38184L9 1.88184L15 4.88184L22 1.38184V18.6182ZM4.55279 6.34177C4.214 6.51116 4 6.85743 4 7.2362V18.5728C4 18.9445 4.39116 19.1863 4.72361 19.02L7.44721 17.6582C7.786 17.4888 8 17.1426 8 16.7638V5.42718C8 5.05549 7.60884 4.81374 7.27639 4.97997L4.55279 6.34177ZM10 16.7638C10 17.1426 10.214 17.4888 10.5528 17.6582L13.2764 19.02C13.6088 19.1863 14 18.9445 14 18.5728V7.2362C14 6.85743 13.786 6.51116 13.4472 6.34177L10.7236 4.97997C10.3912 4.81374 10 5.05549 10 5.42718V16.7638ZM16.5528 6.34177C16.214 6.51116 16 6.85743 16 7.2362V18.5728C16 18.9445 16.3912 19.1863 16.7236 19.02L19.4472 17.6582C19.786 17.4888 20 17.1426 20 16.7638V5.42718C20 5.05549 19.6088 4.81374 19.2764 4.97997L16.5528 6.34177Z" fill="#0F0E0E"/>
</svg>
