<svg width="24" height="24" viewBox="0 0 24 24" fill="none" xmlns="http://www.w3.org/2000/svg">
<path d="M5.60742 21.1229C4.85742 21.1229 4.11576 20.9396 3.38242 20.5729C2.64909 20.2063 2.05742 19.7229 1.60742 19.1229C2.04076 19.1229 2.48242 18.9521 2.93242 18.6104C3.38242 18.2688 3.60742 17.7729 3.60742 17.1229C3.60742 16.2896 3.89909 15.5813 4.48242 14.9979C5.06576 14.4146 5.77409 14.1229 6.60742 14.1229C7.44076 14.1229 8.14909 14.4146 8.73242 14.9979C9.31576 15.5813 9.60742 16.2896 9.60742 17.1229C9.60742 18.2229 9.21576 19.1646 8.43242 19.9479C7.64909 20.7313 6.70742 21.1229 5.60742 21.1229ZM5.60742 19.1229C6.15742 19.1229 6.62825 18.9271 7.01992 18.5354C7.41159 18.1438 7.60742 17.6729 7.60742 17.1229C7.60742 16.8396 7.51159 16.6021 7.31992 16.4104C7.12826 16.2188 6.89076 16.1229 6.60742 16.1229C6.32409 16.1229 6.08659 16.2188 5.89492 16.4104C5.70326 16.6021 5.60742 16.8396 5.60742 17.1229C5.60742 17.5063 5.56159 17.8563 5.46992 18.1729C5.37826 18.4896 5.25742 18.7896 5.10742 19.0729C5.19076 19.1063 5.27409 19.1229 5.35742 19.1229H5.60742ZM11.3574 15.1229L8.60742 12.3729L18.2574 2.72293L21.0074 5.47293L11.3574 15.1229Z" fill="#0F0E0E"/>
</svg>
