<svg width="24" height="24" viewBox="0 0 24 24" fill="none" xmlns="http://www.w3.org/2000/svg">
<path fill-rule="evenodd" clip-rule="evenodd" d="M16.5 5C20.6421 5 24 8.35786 24 12.5C24 16.6421 20.6421 20 16.5 20C14.8113 20 13.2536 19.4409 12 18.499C10.7464 19.4409 9.18874 20 7.5 20C3.35786 20 0 16.6421 0 12.5C0 8.35786 3.35786 5 7.5 5C9.18853 5 10.7465 5.55835 12 6.5C13.2535 5.55835 14.8115 5 16.5 5ZM7.5 7C4.46243 7 2 9.46243 2 12.5C2 15.5376 4.46243 18 7.5 18C8.63148 18 9.68231 17.6571 10.5566 17.0713C9.58168 15.8056 9 14.2212 9 12.5C9 10.7785 9.58139 9.19355 10.5566 7.92773C9.6824 7.34213 8.63128 7 7.5 7ZM16.5 7C15.3684 7 14.3168 7.34185 13.4424 7.92773C14.4178 9.19363 15 10.7783 15 12.5C15 14.2214 14.4176 15.8055 13.4424 17.0713C14.3168 17.6574 15.3682 18 16.5 18C19.5376 18 22 15.5376 22 12.5C22 9.46243 19.5376 7 16.5 7ZM12 9.33887C11.3705 10.2333 11 11.3232 11 12.5C11 13.6766 11.3708 14.7658 12 15.6602C12.6292 14.7658 13 13.6766 13 12.5C13 11.3232 12.6295 10.2333 12 9.33887Z" fill="#0F0E0E"/>
</svg>
