<svg width="24" height="24" viewBox="0 0 24 24" fill="none" xmlns="http://www.w3.org/2000/svg">
<path d="M6.10254 8.18164C8.27926 8.45382 9.95019 9.75845 9.9502 11.4375C9.9502 12.294 9.48601 13.0519 8.69727 13.5605C7.92664 14.0574 6.84717 14.3252 5.5 14.3252C4.38131 14.3252 3.67519 14.6047 3.2666 14.9326C2.86846 15.2522 2.7002 15.6557 2.7002 16.0625C2.70019 16.881 3.43306 17.973 5.10254 18.1816C5.55452 18.2383 5.87486 18.6505 5.81836 19.1025C5.76173 19.5545 5.3495 19.8749 4.89746 19.8184C2.56708 19.527 1.0498 17.869 1.0498 16.0625C1.04981 15.1568 1.44407 14.2791 2.2334 13.6455C3.01231 13.0203 4.11874 12.6748 5.5 12.6748C6.65267 12.6748 7.38584 12.4426 7.80273 12.1738C8.20139 11.9168 8.29981 11.6434 8.2998 11.4375C8.2998 10.9916 7.72063 10.0463 5.89746 9.81836C5.44546 9.76174 5.12514 9.3495 5.18164 8.89746C5.23827 8.44547 5.6505 8.12514 6.10254 8.18164Z" fill="#0F0E0E"/>
<path fill-rule="evenodd" clip-rule="evenodd" d="M22.8389 8.90332L13.6465 18.0967L7.98926 19.5107L9.40332 13.8564V13.8535L18.5967 4.66113L22.8389 8.90332ZM12.2324 13.8535C11.8419 14.244 11.8419 14.8771 12.2324 15.2676C12.6229 15.6581 13.256 15.6581 13.6465 15.2676L19.3037 9.61035C19.6942 9.21987 19.6942 8.58677 19.3037 8.19629C18.9132 7.80581 18.2801 7.80581 17.8896 8.19629L12.2324 13.8535Z" fill="#0F0E0E"/>
</svg>
