<svg width="24" height="24" viewBox="0 0 24 24" fill="none" xmlns="http://www.w3.org/2000/svg">
<path fill-rule="evenodd" clip-rule="evenodd" d="M17.5 9C18.8807 9 20 10.1193 20 11.5C20 12.8807 18.8807 14 17.5 14C16.1193 14 15 12.8807 15 11.5C15 10.1193 16.1193 9 17.5 9ZM17.5 11C17.2239 11 17 11.2239 17 11.5C17 11.7761 17.2239 12 17.5 12C17.7761 12 18 11.7761 18 11.5C18 11.2239 17.7761 11 17.5 11Z" fill="#0F0E0E"/>
<path fill-rule="evenodd" clip-rule="evenodd" d="M23 22H5V6H23V22ZM7 16.9746V19C7 19.5523 7.44772 20 8 20H15.1907C16.1162 20 16.5451 18.8509 15.8459 18.2445L10.8096 13.877L7 16.9746ZM7 14.3975L10.8516 11.2656L20.9238 20H21V9C21 8.44771 20.5523 8 20 8H8C7.44772 8 7 8.44772 7 9V14.3975Z" fill="#0F0E0E"/>
<path d="M19 4H4C3.44772 4 3 4.44772 3 5V18H1V2H19V4Z" fill="#0F0E0E"/>
</svg>
