<svg width="24" height="24" viewBox="0 0 24 24" fill="none" xmlns="http://www.w3.org/2000/svg">
<path fill-rule="evenodd" clip-rule="evenodd" d="M12 5C14.2091 5 16 6.79086 16 9C16 11.2091 14.2091 13 12 13C9.79086 13 8 11.2091 8 9C8 6.79086 9.79086 5 12 5ZM12 7C10.8954 7 10 7.89543 10 9C10 10.1046 10.8954 11 12 11C13.1046 11 14 10.1046 14 9C14 7.89543 13.1046 7 12 7Z" fill="#0F0E0E"/>
<path fill-rule="evenodd" clip-rule="evenodd" d="M12 1C16.4183 1 20 4.58172 20 9C20 16 12 23 12 23C12 23 4 16 4 9C4 4.58172 7.58172 1 12 1ZM12 3C8.68629 3 6 5.68629 6 9C6 11.8164 7.65353 14.8704 9.59082 17.4131C9.93252 17.8616 10.2751 18.2832 10.6068 18.6731C11.3412 19.5363 12.6588 19.5363 13.3932 18.6731C13.7249 18.2832 14.0675 17.8616 14.4092 17.4131C16.3465 14.8704 18 11.8164 18 9C18 5.68629 15.3137 3 12 3Z" fill="#0F0E0E"/>
</svg>
