<svg width="24" height="24" viewBox="0 0 24 24" fill="none" xmlns="http://www.w3.org/2000/svg">
<g clip-path="url(#clip0_14519_1252)">
<path d="M18 11.1357V12.8643L9.50391 18L8 17V7L9.50391 6L18 11.1357Z" fill="#0F0E0E"/>
<path fill-rule="evenodd" clip-rule="evenodd" d="M12 0C18.6274 0 24 5.37258 24 12C24 18.6274 18.6274 24 12 24C5.37258 24 0 18.6274 0 12C0 5.37258 5.37258 0 12 0ZM12 2C6.47715 2 2 6.47715 2 12C2 17.5228 6.47715 22 12 22C17.5228 22 22 17.5228 22 12C22 6.47715 17.5228 2 12 2Z" fill="#0F0E0E"/>
</g>
<defs>
<clipPath id="clip0_14519_1252">
<rect width="24" height="24" fill="white"/>
</clipPath>
</defs>
</svg>
