<svg width="24" height="24" viewBox="0 0 24 24" fill="none" xmlns="http://www.w3.org/2000/svg">
<g clip-path="url(#clip0_14207_1557)">
<path fill-rule="evenodd" clip-rule="evenodd" d="M12 0C18.6274 0 24 5.37258 24 12C24 18.6274 18.6274 24 12 24C5.37258 24 0 18.6274 0 12C0 5.37258 5.37258 0 12 0ZM12 2C6.47715 2 2 6.47715 2 12C2 17.5228 6.47715 22 12 22C17.5228 22 22 17.5228 22 12C22 6.47715 17.5228 2 12 2Z" fill="#0F0E0E"/>
<path d="M12 18C12.35 18 12.6458 17.8792 12.8875 17.6375C13.1291 17.3958 13.25 17.1 13.25 16.75C13.25 16.4 13.1291 16.1042 12.8875 15.8625C12.6458 15.6208 12.35 15.5 12 15.5C11.65 15.5 11.3541 15.6208 11.1125 15.8625C10.8708 16.1042 10.75 16.4 10.75 16.75C10.75 17.1 10.8708 17.3958 11.1125 17.6375C11.3541 17.8792 11.65 18 12 18ZM11.1 14.15H12.95C12.95 13.55 13.0166 13.1083 13.15 12.825C13.2833 12.5417 13.5666 12.1833 14 11.75C14.5833 11.1667 14.9958 10.6792 15.2375 10.2875C15.4791 9.89583 15.6 9.45 15.6 8.95C15.6 8.06667 15.3 7.35417 14.7 6.8125C14.1 6.27083 13.2916 6 12.275 6C11.3583 6 10.5791 6.225 9.93748 6.675C9.29581 7.125 8.84998 7.75 8.59998 8.55L10.25 9.2C10.3666 8.75 10.6 8.3875 10.95 8.1125C11.3 7.8375 11.7083 7.7 12.175 7.7C12.625 7.7 13 7.82083 13.3 8.0625C13.6 8.30417 13.75 8.625 13.75 9.025C13.75 9.30833 13.6583 9.60833 13.475 9.925C13.2916 10.2417 12.9833 10.5917 12.55 10.975C12 11.4583 11.6208 11.9208 11.4125 12.3625C11.2041 12.8042 11.1 13.4 11.1 14.15Z" fill="#0F0E0E"/>
</g>
<defs>
<clipPath id="clip0_14207_1557">
<rect width="24" height="24" fill="white"/>
</clipPath>
</defs>
</svg>
