<svg width="24" height="24" viewBox="0 0 24 24" fill="none" xmlns="http://www.w3.org/2000/svg">
<path d="M12 2C6.4775 2 2 6.4775 2 12C2 14.7617 3.11917 17.2617 4.92917 19.0708L3.02417 20.9758C2.64583 21.3542 2.91417 22 3.44833 22H12C17.5225 22 22 17.5225 22 12C22 6.4775 17.5225 2 12 2ZM15.6567 4.66583C16.5767 4.66583 17.3225 5.41167 17.3225 6.33167C17.3225 7.2525 16.5767 7.99833 15.6567 7.99833C14.8683 7.99833 14.2075 7.45083 14.0342 6.71583V6.7175C13.0783 6.8525 12.3408 7.67583 12.3408 8.66833V8.67417C13.8208 8.73 15.1742 9.14667 16.2458 9.81C16.64 9.5075 17.1325 9.32667 17.6683 9.32667C18.9575 9.32667 20.0033 10.3717 20.0033 11.6617C20.0033 12.5925 19.4575 13.3958 18.6692 13.7708C18.5958 16.4842 15.6383 18.6675 12.005 18.6675C8.37083 18.6675 5.4175 16.4867 5.34 13.7758C4.545 13.4033 3.995 12.5967 3.995 11.6608C3.995 10.3708 5.04083 9.32583 6.33083 9.32583C6.86833 9.32583 7.36333 9.5075 7.7575 9.81333C8.82 9.155 10.1583 8.7375 11.6242 8.67583V8.6675C11.6242 7.28167 12.6767 6.13917 14.0242 5.995C14.1808 5.23583 14.8517 4.66583 15.6567 4.66583ZM8.91917 11.6458C8.26583 11.6458 7.70333 12.2958 7.66417 13.1433C7.625 13.99 8.1975 14.3342 8.8525 14.3342C9.5075 14.3342 9.995 14.0267 10.0342 13.18C10.0733 12.3325 9.57333 11.6458 8.91917 11.6458ZM15.0908 11.6458C14.4358 11.6458 13.9367 12.3325 13.9758 13.18C14.015 14.0275 14.5042 14.3342 15.1575 14.3342C15.8117 14.3342 16.385 13.99 16.3458 13.1433C16.3075 12.2958 15.745 11.6458 15.0908 11.6458ZM12.005 14.99C11.1933 14.99 10.4158 15.03 9.69667 15.1025C9.57417 15.115 9.49583 15.2425 9.54417 15.3567C9.94667 16.3183 10.8958 16.9933 12.005 16.9933C13.1133 16.9933 14.0633 16.3183 14.4658 15.3567C14.5133 15.2425 14.435 15.115 14.3125 15.1025C13.5933 15.03 12.8167 14.99 12.005 14.99Z" fill="#0F0E0E"/>
</svg>
