<svg width="24" height="24" viewBox="0 0 24 24" fill="none" xmlns="http://www.w3.org/2000/svg">
<path fill-rule="evenodd" clip-rule="evenodd" d="M10 2C14.4183 2 18 5.58172 18 10C18 11.2201 17.7258 12.3755 17.2366 13.4096C16.805 14.322 16.8474 15.447 17.5611 16.1607L22 20.5996L20.5996 22L16.1607 17.5611C15.447 16.8474 14.322 16.805 13.4096 17.2366C12.3755 17.7258 11.2201 18 10 18C5.58172 18 2 14.4183 2 10C2 5.58172 5.58172 2 10 2ZM10 4C6.68629 4 4 6.68629 4 10C4 13.3137 6.68629 16 10 16C13.3137 16 16 13.3137 16 10C16 6.68629 13.3137 4 10 4Z" fill="#0F0E0E"/>
</svg>
