<svg width="24" height="24" viewBox="0 0 24 24" fill="none" xmlns="http://www.w3.org/2000/svg">
<path d="M4 21V11H9V13H8C6.89543 13 6 13.8954 6 15V17C6 18.1046 6.89543 19 8 19H16C17.1046 19 18 18.1046 18 17V15C18 13.8954 17.1046 13 16 13H15V11H20V21H4Z" fill="#0F0E0E"/>
<path d="M17.707 7.70703L16.293 9.12109L14.7071 7.53523C14.0771 6.90527 13 7.35143 13 8.24234V16H11V8.24234C11 7.35143 9.92286 6.90527 9.29289 7.53523L7.70703 9.12109L6.29297 7.70703L12 2L17.707 7.70703Z" fill="#0F0E0E"/>
</svg>
