<svg width="24" height="24" viewBox="0 0 24 24" fill="none" xmlns="http://www.w3.org/2000/svg">
<path d="M9.12598 20.0098C10.0984 20.1086 10.8574 20.9304 10.8574 21.9287C10.8573 22.9936 9.9938 23.8573 8.92871 23.8574C7.93019 23.8574 7.10862 23.0983 7.00977 22.126L7 21.9287L7.00977 21.7314C7.1085 20.759 7.9301 20 8.92871 20L9.12598 20.0098Z" fill="#0F0E0E"/>
<path d="M18.126 20.0098C19.0983 20.1086 19.8574 20.9303 19.8574 21.9287C19.8573 22.9936 18.9936 23.8573 17.9287 23.8574C16.93 23.8574 16.1086 23.0982 16.0098 22.126L16 21.9287L16.0098 21.7314C16.1085 20.7591 16.9299 20 17.9287 20L18.126 20.0098Z" fill="#0F0E0E"/>
<path fill-rule="evenodd" clip-rule="evenodd" d="M4.96973 1.75781L5.53027 4H24V6.12305L23.9697 6.24219L21.9697 14.2422L21.7812 15H8.28027L8.78027 17H21.25L20.75 19H7.21875L7.03027 18.2422L3.21973 3H0V1H4.78125L4.96973 1.75781ZM7.31152 6C6.66107 6 6.1833 6.61116 6.34082 7.24219L7.59082 12.2422C7.70211 12.6874 8.10266 13 8.56152 13H19.4385C19.8973 13 20.2979 12.6874 20.4092 12.2422L21.6592 7.24219C21.8167 6.61116 21.3389 6 20.6885 6H7.31152Z" fill="#0F0E0E"/>
</svg>
