<svg width="24" height="24" viewBox="0 0 24 24" fill="none" xmlns="http://www.w3.org/2000/svg">
<path d="M12.4 12L8.4 16L7 14.6L8.18579 13.4142C8.96684 12.6332 8.96684 11.3668 8.18579 10.5858L7 9.4L8.4 8L12.4 12Z" fill="#0F0E0E"/>
<path fill-rule="evenodd" clip-rule="evenodd" d="M22 22H2V2H22V22ZM4 18C4 19.1046 4.89543 20 6 20H12C13.1046 20 14 19.1046 14 18V6C14 4.89543 13.1046 4 12 4H6C4.89543 4 4 4.89543 4 6V18ZM16 18C16 19.1046 16.8954 20 18 20C19.1046 20 20 19.1046 20 18V6C20 4.89543 19.1046 4 18 4C16.8954 4 16 4.89543 16 6V18Z" fill="#0F0E0E"/>
</svg>
