<svg width="24" height="24" viewBox="0 0 24 24" fill="none" xmlns="http://www.w3.org/2000/svg">
<path fill-rule="evenodd" clip-rule="evenodd" d="M21.7031 21.2969L20.293 22.707L16.9707 19.3848C16.0951 20.0931 15.0921 20.6504 14 21.0137V18.873C14.5538 18.631 15.0714 18.3222 15.5459 17.96L12 14.4141V20L6.66699 16H3V8H5.58594L1.29297 3.70703L2.70312 2.29688L21.7031 21.2969ZM6 10C5.44772 10 5 10.4477 5 11V13C5 13.5523 5.44772 14 6 14H7.33301L9.2002 15.4004C9.52981 15.6473 10 15.4119 10 15V12.4141L7.58594 10H6Z" fill="#0F0E0E"/>
<path d="M14 2.98535C17.7763 4.24145 20.5 7.80184 20.5 12C20.5 13.5314 20.1356 14.9766 19.4912 16.2568L17.9795 14.7451C18.315 13.8952 18.5 12.9695 18.5 12C18.5 8.92479 16.6485 6.28347 14 5.12598V2.98535Z" fill="#0F0E0E"/>
<path d="M14 7.39062C15.5048 8.37203 16.5 10.0694 16.5 12C16.5 12.3925 16.4564 12.7747 16.3779 13.1436L14 10.7656V7.39062Z" fill="#0F0E0E"/>
<path d="M12 8.76562L9.27637 6.04199L12 4V8.76562Z" fill="#0F0E0E"/>
</svg>
