<svg width="24" height="24" viewBox="0 0 24 24" fill="none" xmlns="http://www.w3.org/2000/svg">
<path d="M14 2.98535C17.7763 4.24145 20.5 7.80184 20.5 12C20.5 16.1981 17.7761 19.7575 14 21.0137V18.873C16.6483 17.7155 18.5 15.0751 18.5 12C18.5 8.92479 16.6485 6.28347 14 5.12598V2.98535Z" fill="#0F0E0E"/>
<path d="M14 7.39062C15.5048 8.37203 16.5 10.0694 16.5 12C16.5 13.9304 15.5046 15.627 14 16.6084V7.39062Z" fill="#0F0E0E"/>
<path d="M12 20L6.66699 16H3V8H6.66699L12 4V20ZM7.33301 10H6C5.44772 10 5 10.4477 5 11V13C5 13.5523 5.44772 14 6 14H7.33301L9.20002 15.4001C9.52965 15.6473 10 15.4121 10 15.0001V8.99924C10 8.58718 9.52954 8.352 9.19993 8.5993L7.33301 10Z" fill="#0F0E0E"/>
</svg>
