<svg width="24" height="24" viewBox="0 0 24 24" fill="none" xmlns="http://www.w3.org/2000/svg">
<path d="M12.4359 1.00883C6.36577 0.767739 1.24991 5.4933 1.00883 11.5637C0.767749 17.6349 5.49311 22.751 11.5641 22.9912C17.6342 23.2323 22.7501 18.5067 22.9912 12.4363C23.2323 6.36599 18.506 1.249 12.4359 1.00883ZM17.0797 17.1234C16.9934 17.2746 16.8506 17.3854 16.6827 17.4315C16.5148 17.4776 16.3355 17.4551 16.1841 17.3691C14.7298 16.5416 13.1315 15.9981 11.4743 15.7676C9.81789 15.5324 8.13187 15.6142 6.50602 16.0087C6.3401 16.0409 6.16814 16.0079 6.02589 15.9167C5.88363 15.8254 5.78201 15.6828 5.74212 15.5186C5.70224 15.3543 5.72717 15.181 5.81173 15.0346C5.89629 14.8883 6.03398 14.7801 6.19619 14.7327C7.98367 14.2982 9.82157 14.2092 11.6576 14.4668C13.4937 14.7253 15.2353 15.3175 16.834 16.2269C16.909 16.2696 16.9748 16.3267 17.0278 16.3949C17.0807 16.4631 17.1197 16.541 17.1425 16.6243C17.1653 16.7075 17.1715 16.7944 17.1607 16.8801C17.1499 16.9657 17.1224 17.0484 17.0797 17.1234ZM18.5252 14.2358C18.472 14.3345 18.3998 14.4217 18.3128 14.4925C18.2259 14.5632 18.1258 14.6161 18.0183 14.6482C17.9109 14.6802 17.7981 14.6907 17.6866 14.6791C17.5751 14.6675 17.467 14.634 17.3684 14.5805C15.6654 13.6598 13.8115 13.0513 11.8941 12.7838C9.97731 12.5124 8.0274 12.5863 6.13661 13.0019C6.02705 13.0262 5.91378 13.0287 5.80328 13.0091C5.69279 12.9895 5.58725 12.9483 5.49272 12.8878C5.39819 12.8273 5.31652 12.7488 5.25241 12.6567C5.1883 12.5646 5.143 12.4607 5.11912 12.3511C5.09483 12.2415 5.09241 12.1283 5.11199 12.0178C5.13158 11.9073 5.17278 11.8017 5.23325 11.7072C5.29372 11.6126 5.37225 11.531 5.46435 11.4669C5.55645 11.4027 5.6603 11.3574 5.76994 11.3336C7.85902 10.8735 10.0137 10.7921 12.1315 11.0934C14.2504 11.3876 16.2992 12.0598 18.1806 13.078C18.5949 13.3026 18.7489 13.8206 18.5252 14.2358ZM20.1275 10.9806C19.9988 11.2278 19.7773 11.4137 19.5115 11.4976C19.2458 11.5815 18.9577 11.5564 18.7104 11.428C16.7273 10.3969 14.5826 9.7124 12.369 9.40392C10.1559 9.09003 7.90552 9.15668 5.71494 9.60101C5.44346 9.65262 5.16258 9.59518 4.93315 9.44113C4.70373 9.28707 4.54424 9.04882 4.48926 8.77799C4.43428 8.50715 4.48822 8.22557 4.63941 7.99423C4.79059 7.7629 5.02683 7.60046 5.29695 7.54211C7.72133 7.05 10.2119 6.97559 12.6614 7.32211C15.1115 7.66411 17.4853 8.42212 19.6802 9.56343C20.1945 9.8311 20.3952 10.4655 20.1275 10.9806Z" fill="#0F0E0E"/>
</svg>
