<svg width="24" height="24" viewBox="0 0 24 24" fill="none" xmlns="http://www.w3.org/2000/svg">
<g clip-path="url(#clip0_14441_235)">
<path d="M22 12C22 6.47713 17.5229 1.99998 12 1.99998C6.47715 1.99998 2 6.47714 2 12C2 17.5229 6.47715 22 12 22C17.5229 22 22 17.5229 22 12ZM24 12C24 18.6275 18.6275 24 12 24C5.37259 24 1.29585e-07 18.6275 0 12C0 5.37257 5.37258 -1.52588e-05 12 -1.52588e-05C18.6275 -1.51292e-05 24 5.37257 24 12Z" fill="#0F0E0E"/>
<path d="M20 12C20 16.4183 16.4183 20 12 20C7.58172 20 4 16.4183 4 12C4 7.58172 7.58172 4 12 4C16.4183 4 20 7.58172 20 12Z" fill="#0F0E0E"/>
</g>
<defs>
<clipPath id="clip0_14441_235">
<rect width="24" height="24" fill="white"/>
</clipPath>
</defs>
</svg>
