<svg width="24" height="24" viewBox="0 0 24 24" fill="none" xmlns="http://www.w3.org/2000/svg">
<g clip-path="url(#clip0_14441_234)">
<path d="M22 12C22 6.47713 17.5229 1.99998 12 1.99998C6.47715 1.99998 2 6.47714 2 12C2 17.5229 6.47715 22 12 22C17.5229 22 22 17.5229 22 12ZM24 12C24 18.6275 18.6275 24 12 24C5.37259 24 1.29585e-07 18.6275 0 12C0 5.37257 5.37258 -1.52588e-05 12 -1.52588e-05C18.6275 -1.51292e-05 24 5.37257 24 12Z" fill="#0F0E0E"/>
<path d="M12 4C13.5823 4 15.129 4.46919 16.4446 5.34824C17.7602 6.22729 18.7855 7.47672 19.391 8.93853C19.9965 10.4003 20.155 12.0089 19.8463 13.5607C19.5376 15.1126 18.7757 16.538 17.6569 17.6569C16.538 18.7757 15.1126 19.5376 13.5607 19.8463C12.0089 20.155 10.4003 19.9965 8.93854 19.391C7.47673 18.7855 6.2273 17.7602 5.34825 16.4446C4.4692 15.129 4 13.5823 4 12H12V4Z" fill="#0F0E0E"/>
</g>
<defs>
<clipPath id="clip0_14441_234">
<rect width="24" height="24" fill="white"/>
</clipPath>
</defs>
</svg>
