<svg width="24" height="24" viewBox="0 0 24 24" fill="none" xmlns="http://www.w3.org/2000/svg">
<g clip-path="url(#clip0_14441_252)">
<path d="M22 12C22 6.47713 17.5229 1.99998 12 1.99998C6.47715 1.99998 2 6.47714 2 12C2 17.5229 6.47715 22 12 22C17.5229 22 22 17.5229 22 12ZM24 12C24 18.6275 18.6275 24 12 24C5.37259 24 0 18.6275 0 12C0 5.37257 5.37258 -1.52588e-05 12 -1.52588e-05C18.6275 -1.52588e-05 24 5.37257 24 12Z" fill="#0F0E0E"/>
<path d="M12 4C13.0506 4 14.0909 4.20693 15.0615 4.60897C16.0321 5.011 16.914 5.60028 17.6569 6.34315C18.3997 7.08602 18.989 7.96793 19.391 8.93854C19.7931 9.90914 20 10.9494 20 12L12 12V4Z" fill="#0F0E0E"/>
</g>
<defs>
<clipPath id="clip0_14441_252">
<rect width="24" height="24" fill="white"/>
</clipPath>
</defs>
</svg>
