<svg width="24" height="24" viewBox="0 0 24 24" fill="none" xmlns="http://www.w3.org/2000/svg">
<path d="M13 3V6H11V3H13Z" fill="#0F0E0E"/>
<path d="M13 18V21H11V18H13Z" fill="#0F0E0E"/>
<path d="M19.0725 6.33961L16.9512 8.46093L15.537 7.04672L17.6583 4.9254L19.0725 6.33961Z" fill="#0F0E0E"/>
<path d="M8.46594 16.9462L6.34462 19.0675L4.9304 17.6533L7.05172 15.532L8.46594 16.9462Z" fill="#0F0E0E"/>
<path d="M21.0015 12.9965H18.0015V10.9965H21.0015V12.9965Z" fill="#0F0E0E"/>
<path d="M6.00146 12.9965H3.00146L3.00146 10.9965H6.00146V12.9965Z" fill="#0F0E0E"/>
<path d="M17.6619 19.069L15.5405 16.9477L16.9548 15.5335L19.0761 17.6548L17.6619 19.069Z" fill="#0F0E0E"/>
<path d="M7.05526 8.4624L4.93394 6.34107L6.34815 4.92686L8.46947 7.04818L7.05526 8.4624Z" fill="#0F0E0E"/>
<path d="M15 12C15 10.3431 13.6569 9 12 9C10.3432 9 9.00001 10.3431 9.00001 12C9.00001 13.6569 10.3432 15 12 15V17C9.23858 17 7.00001 14.7614 7.00001 12C7.00001 9.23858 9.23858 7 12 7C14.7614 7 17 9.23858 17 12C17 14.7614 14.7614 17 12 17V15C13.6569 15 15 13.6569 15 12Z" fill="#0F0E0E"/>
</svg>
