<svg width="24" height="24" viewBox="0 0 24 24" fill="none" xmlns="http://www.w3.org/2000/svg">
<g clip-path="url(#clip0_14518_263)">
<path d="M9.39343 1.54492C9.41628 1.58043 9.45463 1.63757 9.50867 1.70898C9.61773 1.85309 9.78538 2.04893 10.0106 2.24414C10.4583 2.63207 11.1101 2.99996 11.9999 3C12.8897 3.00003 13.5414 2.6321 13.9891 2.24414C14.2144 2.0489 14.382 1.85312 14.4911 1.70898C14.5451 1.63756 14.5835 1.58046 14.6063 1.54492C14.6177 1.52721 14.6254 1.51452 14.6288 1.50879L14.6278 1.51074L14.913 1H18.3505L18.6249 1.21875L23.6249 5.21875L23.9999 5.51953V6.78711L23.8475 7.03027L20.8661 11.8008L18.9999 10.8682V23H4.99988V10.8682L3.13367 11.8008L0.152222 7.03027L-0.00012207 6.78711V5.51953L0.374878 5.21875L5.37488 1.21875L5.64929 1H9.08679L9.37195 1.5127L9.39343 1.54492ZM2.11121 6.3916L3.86511 9.19824L5.69714 8.2832L6.99988 9.58594V21H16.9999V9.58594L18.3026 8.2832L20.1337 9.19824L21.8876 6.3916L17.6483 3H16.0194C15.8474 3.21798 15.6089 3.48709 15.2987 3.75586C14.5923 4.36792 13.4935 5.00004 11.9999 5C10.5062 4.99995 9.40742 4.36791 8.70105 3.75586C8.39087 3.48708 8.15237 3.21797 7.98035 3H6.35144L2.11121 6.3916Z" fill="#0F0E0E"/>
</g>
<defs>
<clipPath id="clip0_14518_263">
<rect width="24" height="24" fill="white"/>
</clipPath>
</defs>
</svg>
