<svg width="24" height="24" viewBox="0 0 24 24" fill="none" xmlns="http://www.w3.org/2000/svg">
<path fill-rule="evenodd" clip-rule="evenodd" d="M21 21H13V13H21V21ZM15 19H19V15H15V19Z" fill="#0F0E0E"/>
<path fill-rule="evenodd" clip-rule="evenodd" d="M22.2998 7.34961L16.6504 13L11 7.34961L16.6504 1.7002L22.2998 7.34961ZM13.8496 7.375L16.6748 10.2002L19.5 7.375L16.6748 4.5498L13.8496 7.375Z" fill="#0F0E0E"/>
<path fill-rule="evenodd" clip-rule="evenodd" d="M11 11H3V3H11V11ZM5 9H9V5H5V9Z" fill="#0F0E0E"/>
<path fill-rule="evenodd" clip-rule="evenodd" d="M8 11C10.7614 11 13 13.2386 13 16C13 18.7614 10.7614 21 8 21C5.23858 21 3 18.7614 3 16C3 13.2386 5.23858 11 8 11ZM8 13C6.34315 13 5 14.3431 5 16C5 17.6569 6.34315 19 8 19C9.65685 19 11 17.6569 11 16C11 14.3431 9.65685 13 8 13Z" fill="#0F0E0E"/>
</svg>
