<svg width="24" height="24" viewBox="0 0 24 24" fill="none" xmlns="http://www.w3.org/2000/svg">
<path fill-rule="evenodd" clip-rule="evenodd" d="M22.45 6.64787C22.1975 5.70475 21.4564 4.9636 20.5133 4.71115C18.8038 4.25311 11.9531 4.25311 11.9531 4.25311C11.9531 4.25311 5.10246 4.25311 3.39475 4.71115C2.45164 4.9636 1.71049 5.70475 1.45803 6.64787C1 8.35557 1 11.9207 1 11.9207C1 11.9207 1 15.4857 1.45803 17.1934C1.71049 18.1366 2.45164 18.8777 3.39475 19.1302C5.10246 19.5882 11.9531 19.5882 11.9531 19.5882C11.9531 19.5882 18.8038 19.5882 20.5115 19.1302C21.4546 18.8777 22.1957 18.1366 22.4482 17.1934C22.9062 15.4857 22.9062 11.9207 22.9062 11.9207C22.9062 11.9207 22.9062 8.35557 22.4482 6.64787H22.45ZM9.76214 15.2062L15.4551 11.9207L9.76214 8.63508V15.2062Z" fill="#0F0E0E"/>
</svg>
