<?xml version="1.0" encoding="utf-8"?>
<!-- Generator: Adobe Illustrator 27.8.0, SVG Export Plug-In . SVG Version: 6.00 Build 0)  -->
<svg version="1.1" id="Layer_1" xmlns="http://www.w3.org/2000/svg" xmlns:xlink="http://www.w3.org/1999/xlink" x="0px" y="0px"
	 viewBox="0 0 420 202" style="enable-background:new 0 0 420 202;" xml:space="preserve">
<style type="text/css">
	.st0{fill:#2B2B2B;}
</style>
<path class="st0" d="M46.5,106.8l-0.5,0.5v22.5l-0.5,0.5h-10C11.6,130.4,0,145,0,165c0,20,11.6,35,35.4,35h32.6l0.5-0.5v-92.1
	l-0.5-0.5H46.5z M35.4,177.6c-6.4,0-12-4.5-12-12.5s5.6-12.5,12-12.5s12,4.5,12,12.5S41.8,177.6,35.4,177.6z M107.3,128.2
	c-20.8,0-33,15.3-33,36.9c0,21.6,13.1,36.9,33.8,36.9c15.9,0,28.4-8.7,29.8-22.6l-0.5-0.5h-21.6l-0.5,0.5c-0.5,2.5-3.2,4.3-7.7,4.3
	c-6,0-9.2-3.1-9.2-6.9c0-2.9,1.9-4.5,4.8-4.5h35.6l0.5-0.5V162C139.2,139.3,125.4,128.2,107.3,128.2z M111.7,159.1h-8.5
	c-2.9,0-4.5-1.9-4.5-4.8c0-4.3,3.6-7.5,8.8-7.5c5.2,0,8.8,3.2,8.8,7.5C116.2,157.2,114.6,159.1,111.7,159.1z M190,148.9l-0.5,0.5
	h-7.3c-4.3,0-6.7,2.4-6.7,6.7v43.4l-0.5,0.5h-21.6l-0.5-0.5V156c0-4.3-2.4-6.7-6.7-6.7h-5.3l-0.5-0.5v-17.9l0.5-0.5h11.5l0.5-0.5
	l0-22.5l0.5-0.5h36.1l0.5,0.5l0,14.6l-0.5,0.5h-7.3c-4.5,0-6.7,2.3-6.7,6.9v0.5l0.5,0.5h13.5l0.5,0.5V148.9z M225,130.4
	c-23.8,0-35.4,14.9-35.4,34.9c0,20,11.6,34.7,35.4,34.7h34.1l0.5-0.5v-68.5l-0.5-0.5H225z M225,177.6c-6.4,0-12-4.5-12-12.5
	s5.6-12.5,12-12.5c6.4,0,12,4.5,12,12.5S231.4,177.6,225,177.6z M333.3,130.4l0.5,0.5v68.5l-0.5,0.5h-63.1l-0.5-0.5v-68.5l0.5-0.5
	h21.6l0.5,0.5v38.7c0,6,3.3,9.3,9.3,9.3h0.3c6,0,9.3-3.3,9.3-9.3v-38.7l0.5-0.5H333.3z M373.5,179l0.5,0.5v20l-0.5,0.5h-29.2
	l-0.5-0.5v-92.1l0.5-0.5h21.6l0.5,0.5v65c0,4.3,2.4,6.7,6.7,6.7H373.5z M405.9,156.2v17.7c0,4.3,2,6.1,6.3,6.1h7.3l0.5,0.5v18.9
	l-0.5,0.5h-35.7l-0.5-0.5v-43.2c0-4.3-2.4-6.7-6.7-6.7h-5.3l-0.5-0.5v-18.1l0.5-0.5h11.5l0.5-0.5v-18.6l0.5-0.5h21.6l0.5,0.5v18.6
	l0.5,0.5h13.1l0.5,0.5V149l-0.5,0.5h-7.3C407.9,149.6,405.9,152,405.9,156.2z M186.1,93.2c23.8,0,35.4-14.9,35.4-34.8
	c0-20-11.6-34.8-35.4-34.8H176l-0.5-0.5V0.5L174.9,0h-21.6l-0.5,0.5v92.1l0.5,0.5H186.1z M186.1,45.8c6.4,0,12,4.5,12,12.5
	s-5.6,12.5-12,12.5c-6.4,0-12-4.5-12-12.5S179.7,45.8,186.1,45.8z M293.2,24.1l-28,97.7l-0.5,0.5h-40.8l-0.5-0.5v-14.5l0.5-0.5h16.5
	c4.9,0,6.9-2.3,7.7-5.9l0.4-1.6c0.9-4-1.3-6.1-5.3-6.1h-3.9l-0.5-0.5l-19.4-68.5l0.5-0.5h22.9l8.9,39.6c0.7,2.8,2.1,4.3,4.5,4.3
	c2.4,0,3.9-1.5,4.5-4.3l8.9-39.6h22.9L293.2,24.1z"/>
</svg>
