<svg width="24" height="24" viewBox="0 0 24 24" fill="none" xmlns="http://www.w3.org/2000/svg">
<path d="M22.9996 12.0404C22.9996 5.94301 18.0747 1 11.9998 1C5.92482 1 1 5.94301 1 12.0404C1 17.2179 4.55161 21.5625 9.34267 22.7558V15.4144H7.07452V12.0404H9.34267V10.5866C9.34267 6.82889 11.0371 5.08716 14.7128 5.08716C15.4097 5.08716 16.6122 5.2245 17.1041 5.3614V8.4196C16.8445 8.39221 16.3935 8.37852 15.8334 8.37852C14.0299 8.37852 13.333 9.06435 13.333 10.8472V12.0404H16.9259L16.3086 15.4144H13.333V23C18.7796 22.3398 23 17.6851 23 12.0404H22.9996Z" fill="#0F0E0E"/>
</svg>
