<svg width="24" height="24" viewBox="0 0 24 24" fill="none" xmlns="http://www.w3.org/2000/svg">
<path d="M12.0006 1C9.01326 1 8.63835 1.01306 7.46505 1.06646C6.29405 1.12008 5.49474 1.30548 4.79534 1.5775C4.07189 1.85846 3.4582 2.23429 2.8468 2.84594C2.23494 3.45735 1.85912 4.07106 1.57725 4.79431C1.30455 5.49396 1.11893 6.29352 1.06623 7.4641C1.01375 8.63743 1 9.01258 1 12C1 14.9874 1.01329 15.3612 1.06646 16.5345C1.12031 17.7056 1.3057 18.5049 1.57748 19.2043C1.85866 19.9278 2.23448 20.5415 2.84611 21.1529C3.45728 21.7648 4.07097 22.1415 4.79397 22.4225C5.49382 22.6945 6.29336 22.8799 7.46414 22.9335C8.63743 22.9869 9.01211 23 11.9992 23C14.9868 23 15.3605 22.9869 16.5338 22.9335C17.7048 22.8799 18.505 22.6945 19.2049 22.4225C19.9281 22.1415 20.5409 21.7648 21.1521 21.1529C21.7639 20.5415 22.1397 19.9278 22.4216 19.2045C22.692 18.5049 22.8776 17.7053 22.9326 16.5347C22.9853 15.3614 22.9991 14.9874 22.9991 12C22.9991 9.01258 22.9853 8.63766 22.9326 7.46433C22.8776 6.29329 22.692 5.49396 22.4216 4.79454C22.1397 4.07106 21.7639 3.45735 21.1521 2.84594C20.5402 2.23406 19.9284 1.85823 19.2042 1.5775C18.503 1.30548 17.7032 1.12008 16.5322 1.06646C15.3589 1.01306 14.9854 1 11.9971 1H12.0006ZM11.0138 2.98229C11.3067 2.98183 11.6335 2.98229 12.0006 2.98229C14.9375 2.98229 15.2856 2.99283 16.4454 3.04554C17.5178 3.09458 18.0999 3.27379 18.4876 3.42435C19.0009 3.62373 19.3669 3.86206 19.7517 4.24706C20.1367 4.63206 20.375 4.99873 20.5748 5.51206C20.7254 5.89935 20.9048 6.48144 20.9536 7.55394C21.0063 8.71352 21.0178 9.06185 21.0178 11.9975C21.0178 14.9331 21.0063 15.2814 20.9536 16.441C20.9046 17.5135 20.7254 18.0956 20.5748 18.4829C20.3755 18.9962 20.1367 19.3617 19.7517 19.7465C19.3667 20.1315 19.0012 20.3698 18.4876 20.5692C18.1004 20.7205 17.5178 20.8992 16.4454 20.9483C15.2858 21.001 14.9375 21.0124 12.0006 21.0124C9.06344 21.0124 8.71535 21.001 7.5558 20.9483C6.48333 20.8988 5.90127 20.7196 5.5133 20.569C4.99998 20.3696 4.63333 20.1313 4.24834 19.7463C3.86335 19.3613 3.62502 18.9955 3.4252 18.482C3.27464 18.0947 3.09521 17.5126 3.0464 16.4401C2.99369 15.2805 2.98315 14.9322 2.98315 11.9947C2.98315 9.05727 2.99369 8.71077 3.0464 7.55119C3.09544 6.47869 3.27464 5.8966 3.4252 5.50885C3.62457 4.99552 3.86335 4.62885 4.24834 4.24385C4.63333 3.85885 4.99998 3.62052 5.5133 3.42069C5.90104 3.26944 6.48333 3.09069 7.5558 3.04142C8.57052 2.99558 8.96376 2.98183 11.0138 2.97954V2.98229ZM17.8721 4.80875C17.1434 4.80875 16.5521 5.39931 16.5521 6.12829C16.5521 6.85704 17.1434 7.44829 17.8721 7.44829C18.6008 7.44829 19.1921 6.85704 19.1921 6.12829C19.1921 5.39954 18.6008 4.80829 17.8721 4.80829V4.80875ZM12.0006 6.35104C8.88103 6.35104 6.35179 8.88035 6.35179 12C6.35179 15.1196 8.88103 17.6478 12.0006 17.6478C15.1201 17.6478 17.6485 15.1196 17.6485 12C17.6485 8.88035 15.1199 6.35104 12.0004 6.35104H12.0006ZM12.0006 8.33333C14.0254 8.33333 15.6671 9.97485 15.6671 12C15.6671 14.0249 14.0254 15.6667 12.0006 15.6667C9.9755 15.6667 8.33403 14.0249 8.33403 12C8.33403 9.97485 9.9755 8.33333 12.0006 8.33333Z" fill="#0F0E0E"/>
</svg>
