<svg width="24" height="24" viewBox="0 0 24 24" fill="none" xmlns="http://www.w3.org/2000/svg">
<path d="M9.36164 19.4023C11.1138 19.4023 12.5342 18.1479 12.5342 16.2297V2H16.3391C16.1257 4.59511 18.7055 7.10192 21.5505 7.04459V10.6224C19.1174 10.6224 17.0484 9.59361 16.3283 9.02264V16.2297C16.3283 19.4023 13.8324 23 9.36164 23C4.89084 23 2.44946 19.4023 2.44946 16.2297C2.44946 11.7519 7.18816 9.15491 10.3267 9.78964V13.4339C10.1688 13.378 9.76164 13.2954 9.41483 13.2954C7.64809 13.2303 6.18903 14.6632 6.18903 16.2297C6.18903 17.9819 7.60946 19.4023 9.36164 19.4023Z" fill="#0F0E0E"/>
</svg>
